<svg xmlns="http://www.w3.org/2000/svg" viewBox="0 0 128 128">
  <defs>
    <linearGradient id="bg" x1="16" y1="12" x2="112" y2="116" gradientUnits="userSpaceOnUse">
      <stop stop-color="#67e8f9"/>
      <stop offset="0.58" stop-color="#22c55e"/>
      <stop offset="1" stop-color="#bef264"/>
    </linearGradient>
    <linearGradient id="ink" x1="36" y1="35" x2="92" y2="96" gradientUnits="userSpaceOnUse">
      <stop stop-color="#0f172a"/>
      <stop offset="1" stop-color="#082f49"/>
    </linearGradient>
  </defs>
  <rect width="128" height="128" rx="28" fill="#0b1020"/>
  <path fill="url(#bg)" d="M29 33c0-7 6-13 13-13h44c7 0 13 6 13 13v62c0 7-6 13-13 13H42c-7 0-13-6-13-13V33Z"/>
  <path fill="url(#ink)" d="M44 39h33c12 0 21 9 21 21s-9 21-21 21H58v13H44V39Zm14 13v16h18c5 0 9-3 9-8s-4-8-9-8H58Z"/>
  <path fill="#0b1020" fill-opacity=".92" d="M38 29h52v10H38z"/>
  <path fill="#cffafe" d="M42 92h44v6H42z"/>
  <circle cx="91" cy="34" r="8" fill="#0b1020"/>
  <path fill="#67e8f9" d="M88 34a3 3 0 1 0 6 0 3 3 0 0 0-6 0Z"/>
</svg>
